<svg width="24" height="24" viewBox="0 0 24 24" fill="none" xmlns="http://www.w3.org/2000/svg">
<path d="M16.0853 0H7.91407C7.71422 0 7.55203 0.162197 7.55203 0.362048V7.55261H0.362048C0.162197 7.55261 0 7.7148 0 7.91465V16.0848C0 16.2852 0.162197 16.4468 0.362048 16.4468H7.55203V23.638C7.55203 23.8384 7.71422 24 7.91407 24H16.0848C16.2852 24 16.4468 23.8384 16.4468 23.638V16.4474H23.638C23.8384 16.4474 24 16.2858 24 16.0853V7.91465C24 7.7148 23.8384 7.55261 23.638 7.55261H16.4474V0.362048C16.4474 0.162777 16.2852 0 16.0853 0ZM23.2765 8.2767V15.7227H16.0853C15.8861 15.7227 15.7233 15.8855 15.7233 16.0848V23.2759H8.27612V16.0853C8.27612 15.8861 8.11392 15.7233 7.91407 15.7233H0.724095V8.2767H7.91407C8.11392 8.2767 8.27612 8.1145 8.27612 7.91465V0.724095H15.7227V7.91465C15.7227 8.1145 15.8855 8.2767 16.0848 8.2767H23.2765Z" fill="#F01535"/>
</svg>
